<svg width="24" height="24" viewBox="0 0 24 24" fill="none" xmlns="http://www.w3.org/2000/svg">
<path d="M12.892 2.81003L21.488 9.59503C21.708 9.76838 21.8685 10.006 21.9471 10.2748C22.0258 10.5436 22.0187 10.8302 21.9268 11.0948C21.835 11.3594 21.6629 11.5888 21.4346 11.751C21.2063 11.9133 20.9331 12.0003 20.653 12H20V15.5C20 18.328 20 19.743 19.121 20.621C18.243 21.5 16.828 21.5 14 21.5H10C7.17203 21.5 5.75703 21.5 4.87903 20.621C4.00003 19.743 4.00003 18.328 4.00003 15.5V12H3.34703C3.06695 12.0003 2.79375 11.9133 2.56545 11.751C2.33715 11.5888 2.16509 11.3594 2.07323 11.0948C1.98137 10.8302 1.97427 10.5436 2.05291 10.2748C2.13156 10.006 2.29204 9.76838 2.51203 9.59503L11.108 2.81003C11.3621 2.60953 11.6764 2.50049 12 2.50049C12.3237 2.50049 12.6379 2.60953 12.892 2.81003Z" fill="#12B76A" stroke="#12B76A" stroke-width="1.5" stroke-linecap="round" stroke-linejoin="round"/>
<path d="M14.5 21.5V17C14.5 16.065 14.5 15.598 14.299 15.25C14.1674 15.022 13.978 14.8326 13.75 14.701C13.402 14.5 12.935 14.5 12 14.5C11.065 14.5 10.598 14.5 10.25 14.701C10.022 14.8326 9.83265 15.022 9.701 15.25C9.5 15.598 9.5 16.065 9.5 17V21.5" fill="white"/>
<path d="M14.5 21.5V17C14.5 16.065 14.5 15.598 14.299 15.25C14.1674 15.022 13.978 14.8326 13.75 14.701C13.402 14.5 12.935 14.5 12 14.5C11.065 14.5 10.598 14.5 10.25 14.701C10.022 14.8326 9.83265 15.022 9.701 15.25C9.5 15.598 9.5 16.065 9.5 17V21.5" stroke="#12B76A" stroke-width="1.5" stroke-linecap="round" stroke-linejoin="round"/>
</svg>
