<svg width="22" height="22" viewBox="0 0 22 22" fill="none" xmlns="http://www.w3.org/2000/svg">
<path d="M11.892 1.81003L20.488 8.59503C20.708 8.76838 20.8685 9.00599 20.9471 9.2748C21.0258 9.54361 21.0187 9.83025 20.9268 10.0948C20.835 10.3594 20.6629 10.5888 20.4346 10.751C20.2063 10.9133 19.9331 11.0003 19.653 11H19V14.5C19 17.328 19 18.743 18.121 19.621C17.243 20.5 15.828 20.5 13 20.5H9.00003C6.17203 20.5 4.75703 20.5 3.87903 19.621C3.00003 18.743 3.00003 17.328 3.00003 14.5V11H2.34703C2.06695 11.0003 1.79375 10.9133 1.56545 10.751C1.33715 10.5888 1.16509 10.3594 1.07323 10.0948C0.98137 9.83025 0.974267 9.54361 1.05291 9.2748C1.13156 9.00599 1.29204 8.76838 1.51203 8.59503L10.108 1.81003C10.3621 1.60953 10.6764 1.50049 11 1.50049C11.3237 1.50049 11.6379 1.60953 11.892 1.81003Z" fill="#12B76A" stroke="#12B76A" stroke-width="1.5" stroke-linecap="round" stroke-linejoin="round"/>
<path d="M13.5 20.5V16C13.5 15.065 13.5 14.598 13.299 14.25C13.1674 14.022 12.978 13.8326 12.75 13.701C12.402 13.5 11.935 13.5 11 13.5C10.065 13.5 9.598 13.5 9.25 13.701C9.02199 13.8326 8.83265 14.022 8.701 14.25C8.5 14.598 8.5 15.065 8.5 16V20.5" fill="white"/>
<path d="M13.5 20.5V16C13.5 15.065 13.5 14.598 13.299 14.25C13.1674 14.022 12.978 13.8326 12.75 13.701C12.402 13.5 11.935 13.5 11 13.5C10.065 13.5 9.598 13.5 9.25 13.701C9.02199 13.8326 8.83265 14.022 8.701 14.25C8.5 14.598 8.5 15.065 8.5 16V20.5" stroke="#12B76A" stroke-width="1.5" stroke-linecap="round" stroke-linejoin="round"/>
</svg>
