<svg width="24" height="24" viewBox="0 0 24 24" fill="none" xmlns="http://www.w3.org/2000/svg">
<path fill-rule="evenodd" clip-rule="evenodd" d="M14.254 1.36504C13.158 1.05904 12.132 1.38904 11.403 2.06004C10.684 2.72004 10.25 3.70604 10.25 4.76004V11.455C10.25 12.0637 10.4918 12.6475 10.9222 13.0778C11.3526 13.5082 11.9363 13.75 12.545 13.75H19.239C20.294 13.75 21.281 13.316 21.94 12.597C22.61 11.868 22.941 10.842 22.635 9.74604C22.0743 7.74762 21.009 5.92704 19.5414 4.45929C18.0738 2.99154 16.2533 1.92598 14.255 1.36504M11.75 4.76004C11.75 4.10804 12.02 3.52804 12.418 3.16304C12.804 2.80804 13.304 2.65504 13.851 2.80804C17.401 3.79904 20.2 6.59804 21.191 10.148C21.344 10.696 21.191 11.196 20.836 11.582C20.471 11.979 19.891 12.249 19.239 12.249H12.545C12.3342 12.249 12.1319 12.1653 11.9829 12.0162C11.8338 11.8671 11.75 11.6649 11.75 11.454V4.76004Z" fill="#98A2B3"/>
<path d="M8.672 4.71603C8.8619 4.65636 9.02031 4.52369 9.11239 4.34722C9.20447 4.17075 9.22267 3.96493 9.163 3.77503C9.10333 3.58514 8.97066 3.42673 8.79419 3.33465C8.61772 3.24257 8.4119 3.22436 8.222 3.28403C4.183 4.55403 1.25 8.32803 1.25 12.79C1.25 18.291 5.71 22.751 11.21 22.751C13.3302 22.7518 15.3954 22.0759 17.1049 20.8218C18.8144 19.5676 20.0791 17.8007 20.715 15.778C20.7485 15.6831 20.7625 15.5824 20.7562 15.482C20.7499 15.3816 20.7235 15.2834 20.6785 15.1934C20.6335 15.1034 20.5709 15.0233 20.4943 14.958C20.4177 14.8927 20.3288 14.8435 20.2328 14.8133C20.1368 14.7831 20.0357 14.7725 19.9355 14.7822C19.8354 14.7919 19.7382 14.8216 19.6497 14.8696C19.5613 14.9177 19.4834 14.983 19.4208 15.0618C19.3581 15.1405 19.3119 15.2311 19.285 15.328C18.7442 17.0457 17.6697 18.5462 16.2177 19.6114C14.7657 20.6766 13.0118 21.251 11.211 21.251C10.0999 21.2512 8.99972 21.0324 7.97319 20.6073C6.94666 20.1822 6.01392 19.5591 5.22823 18.7735C4.44254 17.9879 3.81929 17.0552 3.39407 16.0288C2.96886 15.0023 2.75 13.9021 2.75 12.791C2.75 10.9903 3.32422 9.23655 4.38921 7.78455C5.4542 6.33255 6.95448 5.25699 8.672 4.71603Z" fill="#98A2B3"/>
</svg>
