<svg width="24" height="24" viewBox="0 0 24 24" fill="none" xmlns="http://www.w3.org/2000/svg">
<path fill-rule="evenodd" clip-rule="evenodd" d="M9.163 3.77498C9.22255 3.96461 9.2044 4.17012 9.11252 4.34638C9.02064 4.52263 8.86256 4.65521 8.673 4.71498C6.95513 5.25581 5.45452 6.33044 4.38932 7.78266C3.32412 9.23488 2.74985 10.989 2.75 12.79C2.74987 13.901 2.9686 15.0013 3.39369 16.0278C3.81879 17.0543 4.44193 17.9871 5.22752 18.7727C6.01312 19.5584 6.94579 20.1817 7.97227 20.6069C8.99875 21.0321 10.0989 21.251 11.21 21.251C13.0109 21.2512 14.7649 20.6771 16.2171 19.6121C17.6693 18.5471 18.744 17.0467 19.285 15.329C19.3119 15.232 19.3581 15.1415 19.4208 15.0627C19.4834 14.9839 19.5613 14.9186 19.6497 14.8706C19.7382 14.8226 19.8354 14.7928 19.9355 14.7831C20.0357 14.7735 20.1368 14.784 20.2328 14.8142C20.3288 14.8445 20.4177 14.8937 20.4943 14.959C20.5709 15.0243 20.6335 15.1043 20.6785 15.1943C20.7235 15.2844 20.7499 15.3825 20.7562 15.4829C20.7625 15.5834 20.7485 15.6841 20.715 15.779C19.447 19.819 15.672 22.751 11.211 22.751C5.71 22.751 1.25 18.291 1.25 12.791C1.25 8.32898 4.182 4.55498 8.223 3.28498C8.41276 3.22547 8.61839 3.24376 8.79467 3.33584C8.97095 3.42791 9.10343 3.58523 9.163 3.77498Z" fill="#12B76A"/>
<path d="M21.913 9.94697C21.3869 8.07277 20.3876 6.36539 19.0111 4.98891C17.6346 3.61242 15.9272 2.6131 14.053 2.08697C12.409 1.62797 11 3.05397 11 4.75997V11.454C11 12.307 11.692 12.999 12.545 12.999H19.239C20.946 12.999 22.372 11.59 21.913 9.94697Z" fill="#12B76A"/>
</svg>
