<svg width="10" height="24" viewBox="0 0 10 24" fill="none" xmlns="http://www.w3.org/2000/svg">
<path d="M7.09745 5.16595L1.16257 11.5778C1.05834 11.6905 1 11.8415 1 11.9988C1 12.1561 1.05834 12.3071 1.16257 12.4197L7.09745 18.834C7.14601 18.8866 7.20406 18.9283 7.26819 18.9568C7.33231 18.9853 7.40121 19 7.47082 19C7.54042 19 7.60932 18.9853 7.67344 18.9568C7.73757 18.9283 7.79562 18.8866 7.84418 18.834C7.94408 18.7263 8 18.5818 8 18.4312C8 18.2806 7.94408 18.136 7.84418 18.0283L2.2632 11.9988L7.84418 5.97046C7.94373 5.86281 7.99944 5.71847 7.99944 5.56821C7.99944 5.41794 7.94373 5.27361 7.84418 5.16595C7.79562 5.11343 7.73757 5.07169 7.67344 5.04319C7.60932 5.01468 7.54042 5 7.47082 5C7.40121 5 7.33231 5.01468 7.26819 5.04319C7.20406 5.07169 7.14601 5.11343 7.09745 5.16595Z" fill="#475467" stroke="#475467" stroke-width="0.3"/>
</svg>
