<svg width="13" height="20" viewBox="0 0 13 20" fill="none" xmlns="http://www.w3.org/2000/svg">
<path d="M7.96181 14.4729H5.05401C4.46348 14.4729 3.9776 14.9299 3.98507 15.4939V18.2714C3.98507 18.8355 4.46348 19.2925 5.05401 19.2925H5.23939C5.36541 19.5071 5.54902 19.6857 5.77131 19.8101C5.9936 19.9344 6.24656 20 6.50417 20C6.76178 20 7.01474 19.9344 7.23704 19.8101C7.45933 19.6857 7.64293 19.5071 7.76896 19.2925H7.96181C8.55235 19.2925 9.03075 18.8355 9.03075 18.2714V15.4939C9.03075 14.9299 8.55235 14.4729 7.96181 14.4729Z" fill="#9B9B9B"/>
<path d="M8.34302 15.087C8.52242 15.087 8.66445 14.9585 8.6794 14.7943C8.73173 14.1802 9.00831 12.6879 10.5183 11.0886C11.2389 10.5468 11.8308 9.86501 12.2548 9.0883C12.6788 8.31158 12.9251 7.45768 12.9776 6.58316C12.9925 6.4118 13 6.29756 13 6.22616V6.15476C12.9551 2.74179 10.0623 8.93636e-09 6.49668 8.93636e-09C4.78547 -8.76545e-05 3.14334 0.644796 1.92704 1.79455C0.710751 2.9443 0.0185531 4.50604 0.000830524 6.14048C0.000830524 6.14048 -0.0066444 6.31184 0.0232559 6.59744C0.142857 8.41103 1.06977 10.0175 2.48256 11.0814C3.99252 12.6879 4.29153 14.1802 4.34385 14.7943C4.3588 14.9585 4.50083 15.087 4.68023 15.087H8.34302Z" fill="#FCD53F"/>
<path d="M6.50423 6.21193C7.7152 6.21193 8.70191 7.14729 8.71686 8.30398V8.3611C8.71686 8.38252 8.71686 8.41108 8.70938 8.45392C8.67201 9.05369 8.36553 9.61776 7.87217 9.98904L7.81985 10.0247L7.775 10.0676C6.95274 10.9387 6.78081 13.1521 6.75091 14.3659H6.26503C6.22765 13.1521 6.04825 10.9387 5.22599 10.0676L5.18114 10.0247L5.12882 9.98904C4.88191 9.80253 4.67951 9.56784 4.53514 9.30065C4.39077 9.03346 4.30774 8.73992 4.29161 8.43964C4.29161 8.41108 4.28413 8.38966 4.28413 8.37538V8.31112C4.30656 7.15443 5.30074 6.21193 6.50423 6.21193ZM6.50423 5.49792C5.88912 5.49814 5.28935 5.68138 4.78828 6.02219C4.28722 6.36299 3.90975 6.84443 3.70834 7.3996C3.50694 7.95476 3.49159 8.55606 3.66444 9.11994C3.83729 9.68381 4.18975 10.1822 4.67284 10.546C5.56985 11.5027 5.525 15.0871 5.525 15.0871H7.49842C7.49842 15.0871 7.43862 11.5027 8.3431 10.5531C8.98596 10.0676 9.41204 9.33215 9.46436 8.49676C9.47184 8.41822 9.47184 8.36824 9.47184 8.33254V8.30398C9.46396 7.55715 9.14783 6.84347 8.59215 6.31804C8.03646 5.79261 7.28614 5.49789 6.50423 5.49792Z" fill="#FFB02E"/>
<path d="M9.09499 16.4602C9.14338 16.4521 9.18964 16.435 9.23112 16.4099C9.2726 16.3847 9.30849 16.3521 9.33674 16.3137C9.36499 16.2753 9.38505 16.2319 9.39577 16.1862C9.40649 16.1404 9.40766 16.093 9.39922 16.0468C9.39078 16.0005 9.37289 15.9564 9.34657 15.9167C9.32025 15.8771 9.28602 15.8428 9.24583 15.8159C9.20564 15.7889 9.16028 15.7697 9.11234 15.7595C9.06439 15.7492 9.01481 15.7481 8.96642 15.7562L3.92821 16.5987C3.87981 16.6068 3.83356 16.6239 3.79208 16.649C3.7506 16.6741 3.71471 16.7068 3.68645 16.7452C3.6582 16.7836 3.63814 16.8269 3.62742 16.8727C3.6167 16.9185 3.61553 16.9659 3.62397 17.0121C3.63242 17.0583 3.65031 17.1025 3.67663 17.1421C3.70295 17.1818 3.73718 17.216 3.77737 17.243C3.81756 17.27 3.86292 17.2892 3.91086 17.2994C3.9588 17.3097 4.00839 17.3108 4.05678 17.3027L9.09499 16.4602ZM9.05761 17.9953C9.15414 17.9779 9.2396 17.9249 9.29552 17.8477C9.35144 17.7706 9.37332 17.6755 9.35642 17.5831C9.33952 17.4907 9.28521 17.4083 9.20523 17.3538C9.12525 17.2994 9.02603 17.2771 8.92904 17.292L3.95811 18.1274C3.90812 18.1337 3.85999 18.1496 3.8166 18.1742C3.77322 18.1987 3.73549 18.2314 3.70567 18.2702C3.67586 18.3091 3.65458 18.3533 3.64312 18.4002C3.63166 18.4471 3.63025 18.4957 3.63898 18.5431C3.64771 18.5906 3.6664 18.6358 3.69392 18.6762C3.72144 18.7165 3.75723 18.7512 3.79913 18.778C3.84102 18.8048 3.88816 18.8232 3.93771 18.8321C3.98726 18.8411 4.03819 18.8403 4.08743 18.83L9.05761 17.9953Z" fill="#D3D3D3"/>
<path d="M5.0764 2.45627C4.24666 3.82717 4.66527 5.54079 6.01078 6.27622C7.3563 7.01165 9.11294 6.5047 9.94268 5.1338C10.7724 3.7629 10.3538 2.04928 9.00829 1.31385C7.66278 0.578425 5.90613 1.08537 5.0764 2.45627Z" fill="#FFF478"/>
</svg>
