<svg width="28" height="42" viewBox="0 0 28 42" fill="none" xmlns="http://www.w3.org/2000/svg">
<path d="M13.676 0.00070192C12.071 0.0322668 11.607 1.64558 11.0327 2.96429C10.4584 4.28301 7.0391 11.4552 4.82552 15.0747C2.61194 18.6941 -0.385147 23.4359 0.0408346 30.2153C0.470619 36.9948 6.17953 42.0557 14.1781 41.9995C21.4084 41.9504 27.7334 38.1065 27.9921 29.7559C28.205 22.8432 24.0822 16.8704 22.0473 13.2159C20.8379 11.0414 16.8785 3.76394 16.4601 2.86258C15.7109 1.24927 15.3914 -0.0343702 13.676 0.00070192Z" fill="#26C9FC"/>
<path d="M7.59173 21.1663C6.46593 21.2119 3.78833 24.4245 3.78833 28.4753C3.78833 32.5261 5.86118 35.5178 8.12421 35.0899C10.7486 34.5954 10.3188 32.1263 9.7825 30.1518C9.32228 28.4543 8.60344 26.4482 8.4437 24.6209C8.34481 23.439 8.77079 21.1172 7.59173 21.1663Z" fill="#9AE7FF"/>
</svg>
