<svg width="24" height="24" viewBox="0 0 24 24" fill="none" xmlns="http://www.w3.org/2000/svg">
<g clip-path="url(#clip0_441_2345)">
<path d="M15.3333 6.25V11.5C15.3333 12.4625 16.1958 13.25 17.25 13.25H18.2083V19.375C18.2083 19.8563 18.6396 20.25 19.1667 20.25C19.6937 20.25 20.125 19.8563 20.125 19.375V3.73875C20.125 3.17 19.5404 2.75 18.9367 2.88125C16.8667 3.345 15.3333 4.94625 15.3333 6.25ZM10.5417 8.875H8.625V3.625C8.625 3.14375 8.19375 2.75 7.66667 2.75C7.13958 2.75 6.70833 3.14375 6.70833 3.625V8.875H4.79167V3.625C4.79167 3.14375 4.36042 2.75 3.83333 2.75C3.30625 2.75 2.875 3.14375 2.875 3.625V8.875C2.875 10.8088 4.59042 12.375 6.70833 12.375V19.375C6.70833 19.8563 7.13958 20.25 7.66667 20.25C8.19375 20.25 8.625 19.8563 8.625 19.375V12.375C10.7429 12.375 12.4583 10.8088 12.4583 8.875V3.625C12.4583 3.14375 12.0271 2.75 11.5 2.75C10.9729 2.75 10.5417 3.14375 10.5417 3.625V8.875Z" fill="white"/>
</g>
<defs>
<clipPath id="clip0_441_2345">
<rect width="23" height="21" fill="white" transform="translate(0 1)"/>
</clipPath>
</defs>
</svg>
