<svg width="24" height="24" viewBox="0 0 24 24" fill="none" xmlns="http://www.w3.org/2000/svg">
<g clip-path="url(#clip0_482_2091)">
<circle cx="12" cy="12" r="12" fill="#FF5094"/>
<g clip-path="url(#clip1_482_2091)">
<rect x="3" y="3.00006" width="17.28" height="17.28" rx="8.64" fill="#FF5094"/>
<path d="M5.16003 15.5713V17.7601C5.16003 17.9617 5.31843 18.1201 5.52003 18.1201H7.70883C7.80243 18.1201 7.89603 18.0841 7.96083 18.0121L15.8232 10.1569L13.1232 7.45686L5.26803 15.3121C5.19603 15.3841 5.16003 15.4705 5.16003 15.5713ZM17.9112 8.06886C18.192 7.78806 18.192 7.33446 17.9112 7.05366L16.2264 5.36886C15.9456 5.08806 15.492 5.08806 15.2112 5.36886L13.8936 6.68646L16.5936 9.38646L17.9112 8.06886Z" fill="white"/>
</g>
</g>
<defs>
<clipPath id="clip0_482_2091">
<rect width="24" height="24" fill="white"/>
</clipPath>
<clipPath id="clip1_482_2091">
<rect x="3" y="3.00006" width="17.28" height="17.28" rx="8.64" fill="white"/>
</clipPath>
</defs>
</svg>
