<svg width="22" height="22" viewBox="0 0 22 22" fill="none" xmlns="http://www.w3.org/2000/svg">
<path d="M18.887 11.5309L20.243 12.7384C20.4934 12.9474 20.6607 13.2391 20.7146 13.5608C20.7685 13.8824 20.7055 14.2127 20.537 14.4919L18.902 17.2849C18.7751 17.4987 18.594 17.6752 18.377 17.7964C18.1574 17.9179 17.9109 17.9824 17.66 17.9839C17.5043 17.9849 17.3494 17.9616 17.201 17.9149L15.4655 17.3419C15.1615 17.5369 14.8455 17.7114 14.5175 17.8654L14.153 19.6249C14.0855 19.9486 13.9053 20.2378 13.6445 20.4409C13.3803 20.6477 13.0528 20.7569 12.7175 20.7499H9.33196C8.99658 20.7569 8.6691 20.6477 8.40496 20.4409C8.14468 20.2376 7.96502 19.9484 7.89796 19.6249L7.53196 17.8654C7.20826 17.7094 6.89419 17.5341 6.59146 17.3404L4.84996 17.9149C4.70146 17.9616 4.54661 17.9849 4.39096 17.9839C4.14055 17.9822 3.89457 17.9177 3.67546 17.7964C3.45862 17.6756 3.27751 17.4997 3.15046 17.2864L1.45696 14.4919C1.2809 14.2102 1.21363 13.874 1.26775 13.5462C1.32187 13.2184 1.49368 12.9216 1.75096 12.7114L3.10546 10.9999V10.4689L1.74946 9.26145C1.49905 9.05249 1.33174 8.76078 1.27781 8.43913C1.22388 8.11748 1.2869 7.78715 1.45546 7.50795L3.14896 4.71495C3.27581 4.50115 3.45693 4.32468 3.67396 4.20345C3.89307 4.0822 4.13905 4.01774 4.38946 4.01595C4.54371 4.00621 4.69853 4.02038 4.84846 4.05795L6.55546 4.65795C6.86046 4.46295 7.17646 4.28845 7.50346 4.13445L7.86946 2.37495C7.93652 2.0515 8.11618 1.76234 8.37646 1.55895C8.6406 1.35216 8.96808 1.243 9.30346 1.24995H12.6605C12.9958 1.243 13.3233 1.35216 13.5875 1.55895C13.85 1.76445 14.03 2.05395 14.0945 2.37495L14.4605 4.13445C14.7855 4.28945 15.099 4.46445 15.401 4.65945L17.144 4.08645C17.3374 4.02352 17.5418 4.00142 17.7442 4.02156C17.9467 4.0417 18.1427 4.10363 18.32 4.20345C18.5375 4.32645 18.7175 4.50345 18.845 4.71345L20.537 7.50795C20.7154 7.78728 20.7861 8.12199 20.7358 8.44962C20.6856 8.77725 20.5179 9.0754 20.264 9.28845L18.887 10.4614V11.5309Z" stroke="#1D2939" stroke-width="1.5"/>
<path d="M14.75 11C14.75 11.9946 14.3549 12.9484 13.6517 13.6517C12.9484 14.3549 11.9946 14.75 11 14.75C10.0054 14.75 9.05161 14.3549 8.34835 13.6517C7.64509 12.9484 7.25 11.9946 7.25 11C7.25 10.0054 7.64509 9.05161 8.34835 8.34835C9.05161 7.64509 10.0054 7.25 11 7.25C11.9946 7.25 12.9484 7.64509 13.6517 8.34835C14.3549 9.05161 14.75 10.0054 14.75 11Z" stroke="#1D2939" stroke-width="1.5"/>
</svg>
