<svg width="26" height="26" viewBox="0 0 26 26" fill="none" xmlns="http://www.w3.org/2000/svg">
<g clip-path="url(#clip0_441_2364)">
<path d="M3.25002 18.4166H22.75C23.3459 18.4166 23.8334 18.9041 23.8334 19.5C23.8334 20.0958 23.3459 20.5833 22.75 20.5833H3.25002C2.65419 20.5833 2.16669 20.0958 2.16669 19.5C2.16669 18.9041 2.65419 18.4166 3.25002 18.4166ZM14.9934 8.43913C15.1017 8.17913 15.1667 7.88663 15.1667 7.58329C15.1667 6.39163 14.1917 5.41663 13 5.41663C11.8084 5.41663 10.8334 6.39163 10.8334 7.58329C10.8334 7.88663 10.8984 8.17913 11.0067 8.43913C6.77085 9.31663 3.54252 12.9241 3.25002 17.3333H22.75C22.4575 12.9241 19.2292 9.31663 14.9934 8.43913Z" fill="white"/>
</g>
<defs>
<clipPath id="clip0_441_2364">
<rect width="26" height="26" fill="white"/>
</clipPath>
</defs>
</svg>
