<svg width="10" height="24" viewBox="0 0 10 24" fill="none" xmlns="http://www.w3.org/2000/svg">
<path d="M2.90255 5.16595L8.83743 11.5778C8.94166 11.6905 9 11.8415 9 11.9988C9 12.1561 8.94166 12.3071 8.83743 12.4197L2.90255 18.834C2.85399 18.8866 2.79594 18.9283 2.73181 18.9568C2.66769 18.9853 2.59879 19 2.52918 19C2.45958 19 2.39068 18.9853 2.32656 18.9568C2.26243 18.9283 2.20438 18.8866 2.15582 18.834C2.05592 18.7263 2 18.5818 2 18.4312C2 18.2806 2.05592 18.136 2.15582 18.0283L7.7368 11.9988L2.15582 5.97046C2.05627 5.86281 2.00056 5.71847 2.00056 5.56821C2.00056 5.41794 2.05627 5.27361 2.15582 5.16595C2.20438 5.11343 2.26243 5.07169 2.32656 5.04319C2.39068 5.01468 2.45958 5 2.52918 5C2.59879 5 2.66769 5.01468 2.73181 5.04319C2.79594 5.07169 2.85399 5.11343 2.90255 5.16595Z" fill="#475467" stroke="#475467" stroke-width="0.3"/>
</svg>
