<svg  viewBox="0 0 22 22" fill="none" xmlns="http://www.w3.org/2000/svg">
<path d="M11 0.280029C11.56 0.280029 12.0667 0.44003 12.52 0.76003C13 1.05336 13.24 1.52003 13.24 2.16003V8.64003H19.76C20.3467 8.64003 20.7734 8.84003 21.04 9.24003C21.3334 9.64003 21.48 10.12 21.48 10.68C21.48 11.24 21.3334 11.7334 21.04 12.16C20.7734 12.56 20.3467 12.76 19.76 12.76H13.24V19.84C13.24 20.48 13 20.96 12.52 21.28C12.0667 21.5734 11.56 21.72 11 21.72C10.44 21.72 9.92002 21.5734 9.44002 21.28C8.98669 20.96 8.76002 20.48 8.76002 19.84V12.76H2.24002C1.65335 12.76 1.21335 12.56 0.92002 12.16C0.653353 11.7334 0.52002 11.24 0.52002 10.68C0.52002 10.12 0.653353 9.64003 0.92002 9.24003C1.21335 8.84003 1.65335 8.64003 2.24002 8.64003H8.76002V2.16003C8.76002 1.52003 8.98669 1.05336 9.44002 0.76003C9.92002 0.44003 10.44 0.280029 11 0.280029Z" fill="currentColor"/>
</svg>
