<svg width="48" height="48" viewBox="0 0 48 48" fill="none" xmlns="http://www.w3.org/2000/svg">
<path d="M23.676 3.0007C22.071 3.03227 21.607 4.64558 21.0327 5.96429C20.4584 7.28301 17.0391 14.4552 14.8255 18.0747C12.6119 21.6941 9.61485 26.4359 10.0408 33.2153C10.4706 39.9948 16.1795 45.0557 24.1781 44.9995C31.4084 44.9504 37.7334 41.1065 37.9921 32.7559C38.205 25.8432 34.0822 19.8704 32.0473 16.2159C30.8379 14.0414 26.8785 6.76394 26.4601 5.86258C25.7109 4.24927 25.3914 2.96563 23.676 3.0007Z" fill="#26C9FC"/>
<path d="M17.5917 24.1663C16.4659 24.2119 13.7883 27.4245 13.7883 31.4753C13.7883 35.5261 15.8612 38.5178 18.1242 38.0899C20.7486 37.5954 20.3188 35.1263 19.7825 33.1518C19.3223 31.4543 18.6034 29.4482 18.4437 27.6209C18.3448 26.439 18.7708 24.1172 17.5917 24.1663Z" fill="#9AE7FF"/>
</svg>
