<svg width="24" height="24" viewBox="0 0 24 24" fill="none" xmlns="http://www.w3.org/2000/svg">
<rect width="24" height="24" rx="12" fill="#CBE9DB"/>
<path d="M12 7.14001C12.28 7.14001 12.5333 7.22001 12.76 7.38002C13 7.52668 13.12 7.76001 13.12 8.08001V11.32H16.38C16.6733 11.32 16.8867 11.42 17.02 11.62C17.1667 11.82 17.24 12.06 17.24 12.34C17.24 12.62 17.1667 12.8667 17.02 13.08C16.8867 13.28 16.6733 13.38 16.38 13.38H13.12V16.92C13.12 17.24 13 17.48 12.76 17.64C12.5333 17.7867 12.28 17.86 12 17.86C11.72 17.86 11.46 17.7867 11.22 17.64C10.9933 17.48 10.88 17.24 10.88 16.92V13.38H7.62001C7.32668 13.38 7.10668 13.28 6.96001 13.08C6.82668 12.8667 6.76001 12.62 6.76001 12.34C6.76001 12.06 6.82668 11.82 6.96001 11.62C7.10668 11.42 7.32668 11.32 7.62001 11.32H10.88V8.08001C10.88 7.76001 10.9933 7.52668 11.22 7.38002C11.46 7.22001 11.72 7.14001 12 7.14001Z" fill="white"/>
</svg>
