<svg width="24" height="24" viewBox="0 0 24 24" fill="none" xmlns="http://www.w3.org/2000/svg">
<path d="M12.9618 16.4729H10.054C9.46348 16.4729 8.9776 16.9299 8.98507 17.4939V20.2714C8.98507 20.8355 9.46348 21.2925 10.054 21.2925H10.2394C10.3654 21.5071 10.549 21.6857 10.7713 21.8101C10.9936 21.9344 11.2466 22 11.5042 22C11.7618 22 12.0147 21.9344 12.237 21.8101C12.4593 21.6857 12.6429 21.5071 12.769 21.2925H12.9618C13.5523 21.2925 14.0308 20.8355 14.0308 20.2714V17.4939C14.0308 16.9299 13.5523 16.4729 12.9618 16.4729Z" fill="#9B9B9B"/>
<path d="M13.343 17.087C13.5224 17.087 13.6645 16.9585 13.6794 16.7943C13.7317 16.1802 14.0083 14.6879 15.5183 13.0886C16.2389 12.5468 16.8308 11.865 17.2548 11.0883C17.6788 10.3116 17.9251 9.45768 17.9776 8.58316C17.9925 8.4118 18 8.29756 18 8.22616V8.15476C17.9551 4.74179 15.0623 2 11.4967 2C9.78547 1.99991 8.14334 2.6448 6.92704 3.79455C5.71075 4.9443 5.01855 6.50604 5.00083 8.14048C5.00083 8.14048 4.99336 8.31184 5.02326 8.59744C5.14286 10.411 6.06977 12.0175 7.48256 13.0814C8.99252 14.6879 9.29153 16.1802 9.34385 16.7943C9.3588 16.9585 9.50083 17.087 9.68023 17.087H13.343Z" fill="#FCD53F"/>
<path d="M11.5042 8.21193C12.7152 8.21193 13.7019 9.14729 13.7169 10.304V10.3611C13.7169 10.3825 13.7169 10.4111 13.7094 10.4539C13.672 11.0537 13.3655 11.6178 12.8722 11.989L12.8198 12.0247L12.775 12.0676C11.9527 12.9387 11.7808 15.1521 11.7509 16.3659H11.265C11.2277 15.1521 11.0483 12.9387 10.226 12.0676L10.1811 12.0247L10.1288 11.989C9.88191 11.8025 9.67951 11.5678 9.53514 11.3007C9.39077 11.0335 9.30774 10.7399 9.29161 10.4396C9.29161 10.4111 9.28413 10.3897 9.28413 10.3754V10.3111C9.30656 9.15443 10.3007 8.21193 11.5042 8.21193ZM11.5042 7.49792C10.8891 7.49814 10.2893 7.68138 9.78828 8.02219C9.28722 8.36299 8.90975 8.84443 8.70834 9.3996C8.50694 9.95476 8.49159 10.5561 8.66444 11.1199C8.83729 11.6838 9.18975 12.1822 9.67284 12.546C10.5698 13.5027 10.525 17.0871 10.525 17.0871H12.4984C12.4984 17.0871 12.4386 13.5027 13.3431 12.5531C13.986 12.0676 14.412 11.3322 14.4644 10.4968C14.4718 10.4182 14.4718 10.3682 14.4718 10.3325V10.304C14.464 9.55715 14.1478 8.84347 13.5921 8.31804C13.0365 7.79261 12.2861 7.49789 11.5042 7.49792Z" fill="#FFB02E"/>
<path d="M14.095 18.4602C14.1434 18.4521 14.1896 18.435 14.2311 18.4099C14.2726 18.3847 14.3085 18.3521 14.3367 18.3137C14.365 18.2753 14.3851 18.2319 14.3958 18.1862C14.4065 18.1404 14.4077 18.093 14.3992 18.0468C14.3908 18.0005 14.3729 17.9564 14.3466 17.9167C14.3202 17.8771 14.286 17.8428 14.2458 17.8159C14.2056 17.7889 14.1603 17.7697 14.1123 17.7595C14.0644 17.7492 14.0148 17.7481 13.9664 17.7562L8.92821 18.5987C8.87981 18.6068 8.83356 18.6239 8.79208 18.649C8.7506 18.6741 8.71471 18.7068 8.68645 18.7452C8.6582 18.7836 8.63814 18.8269 8.62742 18.8727C8.6167 18.9185 8.61553 18.9659 8.62397 19.0121C8.63242 19.0583 8.65031 19.1025 8.67663 19.1421C8.70295 19.1818 8.73718 19.216 8.77737 19.243C8.81756 19.27 8.86292 19.2892 8.91086 19.2994C8.9588 19.3097 9.00839 19.3108 9.05678 19.3027L14.095 18.4602ZM14.0576 19.9953C14.1541 19.9779 14.2396 19.9249 14.2955 19.8477C14.3514 19.7706 14.3733 19.6755 14.3564 19.5831C14.3395 19.4907 14.2852 19.4083 14.2052 19.3538C14.1252 19.2994 14.026 19.2771 13.929 19.292L8.95811 20.1274C8.90812 20.1337 8.85999 20.1496 8.8166 20.1742C8.77322 20.1987 8.73549 20.2314 8.70567 20.2702C8.67586 20.3091 8.65458 20.3533 8.64312 20.4002C8.63166 20.4471 8.63025 20.4957 8.63898 20.5431C8.64771 20.5906 8.6664 20.6358 8.69392 20.6762C8.72144 20.7165 8.75723 20.7512 8.79913 20.778C8.84102 20.8048 8.88816 20.8232 8.93771 20.8321C8.98726 20.8411 9.03819 20.8403 9.08743 20.83L14.0576 19.9953Z" fill="#D3D3D3"/>
<path d="M10.0764 4.45627C9.24666 5.82717 9.66527 7.54079 11.0108 8.27622C12.3563 9.01165 14.1129 8.5047 14.9427 7.1338C15.7724 5.7629 15.3538 4.04928 14.0083 3.31385C12.6628 2.57842 10.9061 3.08537 10.0764 4.45627Z" fill="#FFF478"/>
</svg>
