<svg width="23" height="21" viewBox="0 0 23 21" fill="none" xmlns="http://www.w3.org/2000/svg">
<g clip-path="url(#clip0_441_2341)">
<path d="M15.3333 5.25V10.5C15.3333 11.4625 16.1958 12.25 17.25 12.25H18.2083V18.375C18.2083 18.8563 18.6396 19.25 19.1667 19.25C19.6938 19.25 20.125 18.8563 20.125 18.375V2.73875C20.125 2.17 19.5404 1.75 18.9367 1.88125C16.8667 2.345 15.3333 3.94625 15.3333 5.25ZM10.5417 7.875H8.625V2.625C8.625 2.14375 8.19375 1.75 7.66667 1.75C7.13958 1.75 6.70833 2.14375 6.70833 2.625V7.875H4.79167V2.625C4.79167 2.14375 4.36042 1.75 3.83333 1.75C3.30625 1.75 2.875 2.14375 2.875 2.625V7.875C2.875 9.80875 4.59042 11.375 6.70833 11.375V18.375C6.70833 18.8563 7.13958 19.25 7.66667 19.25C8.19375 19.25 8.625 18.8563 8.625 18.375V11.375C10.7429 11.375 12.4583 9.80875 12.4583 7.875V2.625C12.4583 2.14375 12.0271 1.75 11.5 1.75C10.9729 1.75 10.5417 2.14375 10.5417 2.625V7.875Z" fill="white"/>
</g>
<defs>
<clipPath id="clip0_441_2341">
<rect width="23" height="21" fill="white"/>
</clipPath>
</defs>
</svg>
