<svg width="48" height="48" viewBox="0 0 48 48" fill="currentColor" xmlns="http://www.w3.org/2000/svg">
<rect width="48" height="48" rx="24"/>
<path d="M24 14.28C24.56 14.28 25.0667 14.44 25.52 14.76C26 15.0534 26.24 15.52 26.24 16.16V22.64H32.76C33.3467 22.64 33.7734 22.84 34.04 23.24C34.3334 23.64 34.48 24.12 34.48 24.68C34.48 25.24 34.3334 25.7334 34.04 26.16C33.7734 26.56 33.3467 26.76 32.76 26.76H26.24V33.84C26.24 34.48 26 34.96 25.52 35.28C25.0667 35.5734 24.56 35.72 24 35.72C23.44 35.72 22.92 35.5734 22.44 35.28C21.9867 34.96 21.76 34.48 21.76 33.84V26.76H15.24C14.6534 26.76 14.2134 26.56 13.92 26.16C13.6534 25.7334 13.52 25.24 13.52 24.68C13.52 24.12 13.6534 23.64 13.92 23.24C14.2134 22.84 14.6534 22.64 15.24 22.64H21.76V16.16C21.76 15.52 21.9867 15.0534 22.44 14.76C22.92 14.44 23.44 14.28 24 14.28Z" fill="white"/>
</svg>
