<svg width="139" height="34" viewBox="0 0 139 34" fill="none" xmlns="http://www.w3.org/2000/svg">
<path d="M138.253 2.44069C138.751 2.44069 139 2.68928 139 3.18646V7.11866C139 7.61584 138.751 7.86442 138.253 7.86442H135.535V9.55934H138.253C138.751 9.55934 139 9.80793 139 10.3051V14.2373C139 14.7345 138.751 14.9831 138.253 14.9831H135.535V16.9492C135.535 17.4463 135.286 17.6949 134.788 17.6949H129.828C129.33 17.6949 129.081 17.4463 129.081 16.9492V0.983068C129.081 0.779678 129.149 0.610186 129.285 0.474592C129.443 0.3164 129.625 0.237305 129.828 0.237305H134.788C134.992 0.237305 135.162 0.3164 135.297 0.474592C135.456 0.610186 135.535 0.779678 135.535 0.983068V2.44069H138.253ZM112.164 1.52544C112.164 1.02826 112.402 0.779677 112.878 0.779677H117.871C118.369 0.779677 118.619 1.02826 118.619 1.52544V10.7797H126.397C126.896 10.7797 127.145 11.017 127.145 11.4915V15.6271C127.145 16.0791 126.873 16.3277 126.33 16.3729C124.201 16.5311 121.291 16.6328 117.599 16.678C117.056 16.7006 116.15 16.7119 114.882 16.7119C113.953 16.7119 113.285 16.7006 112.878 16.678C112.402 16.678 112.164 16.4181 112.164 15.8983V1.52544ZM113.761 3.11866C113.761 3.45764 113.829 3.80793 113.965 4.16951C114.101 4.53109 114.225 4.71188 114.338 4.71188C114.452 4.71188 114.576 4.53109 114.712 4.16951C114.848 3.80793 114.916 3.45764 114.916 3.11866C114.916 2.50849 114.723 2.20341 114.338 2.20341C113.953 2.20341 113.761 2.50849 113.761 3.11866ZM118.313 19.6949C118.517 19.5141 118.732 19.4011 118.958 19.3559C119.207 19.2882 119.513 19.243 119.875 19.2204C120.691 19.1752 123.159 19.1526 127.281 19.1526C130.428 19.1526 132.342 19.1752 133.021 19.2204C133.52 19.2656 133.916 19.4915 134.21 19.8983C134.527 20.2825 134.686 20.8475 134.686 21.5932V22.9492C134.686 26.113 134.527 29.3673 134.21 32.7119C134.188 32.9605 134.12 33.1413 134.007 33.2543C133.893 33.3672 133.712 33.435 133.463 33.4576C132.195 33.548 130.564 33.6158 128.572 33.661C125.175 33.7288 122.072 33.7627 119.264 33.7627C118.856 33.7627 118.619 33.5254 118.551 33.0509C117.871 29.0057 117.532 25.8192 117.532 23.4915C117.532 22.3616 117.599 21.4915 117.735 20.8814C117.894 20.2712 118.086 19.8757 118.313 19.6949ZM119.604 21.8644C119.604 22.2034 119.672 22.5537 119.807 22.9153C119.943 23.2769 120.068 23.4576 120.181 23.4576C120.294 23.4576 120.419 23.2769 120.555 22.9153C120.691 22.5537 120.759 22.2034 120.759 21.8644C120.759 21.2543 120.566 20.9492 120.181 20.9492C119.796 20.9492 119.604 21.2543 119.604 21.8644ZM128.164 28.4746V24.3729H124.189V28.4746H128.164ZM130.678 2.57629C130.678 2.91527 130.746 3.26555 130.881 3.62713C131.017 3.98872 131.142 4.16951 131.255 4.16951C131.368 4.16951 131.493 3.98872 131.629 3.62713C131.765 3.26555 131.833 2.91527 131.833 2.57629C131.833 1.96612 131.64 1.66103 131.255 1.66103C130.87 1.66103 130.678 1.96612 130.678 2.57629Z" fill="#12B76A"/>
<path d="M111.064 2.44069C111.562 2.44069 111.811 2.68928 111.811 3.18646V7.11866C111.811 7.61584 111.562 7.86442 111.064 7.86442H108.347V9.55934H111.064C111.562 9.55934 111.811 9.80793 111.811 10.3051V14.2373C111.811 14.7345 111.562 14.9831 111.064 14.9831H108.347V16.9492C108.347 17.4463 108.097 17.6949 107.599 17.6949H102.64C102.142 17.6949 101.892 17.4463 101.892 16.9492V0.983068C101.892 0.779678 101.96 0.610186 102.096 0.474592C102.255 0.3164 102.436 0.237305 102.64 0.237305H107.599C107.803 0.237305 107.973 0.3164 108.109 0.474592C108.267 0.610186 108.347 0.779678 108.347 0.983068V2.44069H111.064ZM84.9758 1.52544C84.9758 1.02826 85.2136 0.779677 85.6892 0.779677H90.6826C91.1809 0.779677 91.43 1.02826 91.43 1.52544V10.7797H99.2089C99.7071 10.7797 99.9562 11.017 99.9562 11.4915V15.6271C99.9562 16.0791 99.6845 16.3277 99.1409 16.3729C97.0122 16.5311 94.1022 16.6328 90.4109 16.678C89.8674 16.7006 88.9615 16.7119 87.6934 16.7119C86.7649 16.7119 86.0968 16.7006 85.6892 16.678C85.2136 16.678 84.9758 16.4181 84.9758 15.8983V1.52544ZM86.5724 3.11866C86.5724 3.45764 86.6403 3.80793 86.7762 4.16951C86.9121 4.53109 87.0366 4.71188 87.1499 4.71188C87.2631 4.71188 87.3876 4.53109 87.5235 4.16951C87.6594 3.80793 87.7273 3.45764 87.7273 3.11866C87.7273 2.50849 87.5348 2.20341 87.1499 2.20341C86.7649 2.20341 86.5724 2.50849 86.5724 3.11866ZM91.1242 19.6949C91.328 19.5141 91.5432 19.4011 91.7696 19.3559C92.0188 19.2882 92.3245 19.243 92.6868 19.2204C93.5021 19.1752 95.9705 19.1526 100.092 19.1526C103.24 19.1526 105.153 19.1752 105.833 19.2204C106.331 19.2656 106.727 19.4915 107.022 19.8983C107.339 20.2825 107.497 20.8475 107.497 21.5932V22.9492C107.497 26.113 107.339 29.3673 107.022 32.7119C106.999 32.9605 106.931 33.1413 106.818 33.2543C106.705 33.3672 106.524 33.435 106.274 33.4576C105.006 33.548 103.376 33.6158 101.383 33.661C97.986 33.7288 94.8835 33.7627 92.0754 33.7627C91.6677 33.7627 91.43 33.5254 91.362 33.0509C90.6826 29.0057 90.343 25.8192 90.343 23.4915C90.343 22.3616 90.4109 21.4915 90.5468 20.8814C90.7053 20.2712 90.8978 19.8757 91.1242 19.6949ZM92.4151 21.8644C92.4151 22.2034 92.483 22.5537 92.6189 22.9153C92.7548 23.2769 92.8793 23.4576 92.9925 23.4576C93.1058 23.4576 93.2303 23.2769 93.3662 22.9153C93.5021 22.5537 93.57 22.2034 93.57 21.8644C93.57 21.2543 93.3775 20.9492 92.9925 20.9492C92.6076 20.9492 92.4151 21.2543 92.4151 21.8644ZM100.975 28.4746V24.3729H97.0009V28.4746H100.975ZM103.489 2.57629C103.489 2.91527 103.557 3.26555 103.693 3.62713C103.829 3.98872 103.953 4.16951 104.066 4.16951C104.18 4.16951 104.304 3.98872 104.44 3.62713C104.576 3.26555 104.644 2.91527 104.644 2.57629C104.644 1.96612 104.451 1.66103 104.066 1.66103C103.681 1.66103 103.489 1.96612 103.489 2.57629Z" fill="#12B76A"/>
<path d="M72.446 28.2034C72.2422 28.2034 72.061 28.1243 71.9025 27.9661C71.7666 27.8305 71.6987 27.661 71.6987 27.4576V0.983068C71.6987 0.485892 71.9478 0.237305 72.446 0.237305H77.4055C77.9037 0.237305 78.1528 0.485892 78.1528 0.983068V27.4576C78.1528 27.661 78.0735 27.8305 77.915 27.9661C77.7791 28.1243 77.6093 28.2034 77.4055 28.2034H72.446ZM51.9966 21.0848C51.9966 20.5876 52.2457 20.339 52.7439 20.339H69.7624C69.9662 20.339 70.1361 20.4068 70.272 20.5424C70.4305 20.678 70.5097 20.8588 70.5097 21.0848V25.356C70.5097 25.5593 70.4305 25.7401 70.272 25.8983C70.1361 26.0339 69.9662 26.1017 69.7624 26.1017H52.7439C52.2457 26.1017 51.9966 25.8531 51.9966 25.356V21.0848ZM52.4721 9.22036C52.4721 7.36725 52.8005 5.77403 53.4573 4.4407C54.114 3.08476 55.0085 2.05651 56.1408 1.35595C57.2958 0.655383 58.5639 0.3051 59.9454 0.3051C61.7797 0.3051 63.4328 0.72318 64.9048 1.55934C66.3768 2.3955 67.5205 3.50284 68.3357 4.88137C69.1736 6.23731 69.5926 7.68363 69.5926 9.22036C69.5926 10.7571 69.1736 12.226 68.3357 13.6271C67.5205 15.0057 66.3768 16.1243 64.9048 16.9831C63.4555 17.8192 61.8023 18.2373 59.9454 18.2373C58.6545 18.2373 57.4316 17.887 56.2767 17.1865C55.1444 16.4859 54.2272 15.4576 53.5252 14.1017C52.8232 12.7232 52.4721 11.0961 52.4721 9.22036ZM53.5931 22.6441C53.5931 22.9831 53.6611 23.3334 53.7969 23.6949C53.9328 24.0565 54.0574 24.2373 54.1706 24.2373C54.2838 24.2373 54.4084 24.0565 54.5443 23.6949C54.6801 23.3334 54.7481 22.9831 54.7481 22.6441C54.7481 22.0339 54.5556 21.7288 54.1706 21.7288C53.7856 21.7288 53.5931 22.0339 53.5931 22.6441ZM55.4614 4.71188C55.4614 5.05086 55.5294 5.40115 55.6652 5.76273C55.8011 6.12431 55.9257 6.3051 56.0389 6.3051C56.1521 6.3051 56.2767 6.12431 56.4126 5.76273C56.5484 5.40115 56.6164 5.05086 56.6164 4.71188C56.6164 4.10171 56.4239 3.79663 56.0389 3.79663C55.6539 3.79663 55.4614 4.10171 55.4614 4.71188ZM58.3488 9.25425C58.3488 10.226 58.5639 10.9718 58.9942 11.4915C59.4245 12.0113 59.9567 12.2712 60.5908 12.2712C61.0437 12.2712 61.4966 12.1356 61.9495 11.8644C62.4025 11.5932 62.7761 11.2317 63.0705 10.7797C63.3876 10.3051 63.5461 9.79663 63.5461 9.25425C63.5461 8.71188 63.3876 8.2147 63.0705 7.76273C62.7761 7.28815 62.4025 6.91527 61.9495 6.64408C61.4966 6.3729 61.0437 6.2373 60.5908 6.2373C59.9793 6.2373 59.4471 6.49719 58.9942 7.01697C58.5639 7.53674 58.3488 8.2825 58.3488 9.25425ZM73.2952 2.57629C73.2952 2.91527 73.3632 3.26555 73.499 3.62713C73.6349 3.98872 73.7595 4.16951 73.8727 4.16951C73.9859 4.16951 74.1105 3.98872 74.2463 3.62713C74.3822 3.26555 74.4502 2.91527 74.4502 2.57629C74.4502 1.96612 74.2577 1.66103 73.8727 1.66103C73.4877 1.66103 73.2952 1.96612 73.2952 2.57629Z" fill="#12B76A"/>
<path d="M30.3123 25.5593C30.3802 25.1751 30.5388 24.8813 30.7879 24.6779C31.037 24.4519 31.354 24.3389 31.739 24.3389H40.8087V23.0847H31.5012C31.2974 23.0847 31.1389 23.0395 31.0256 22.9491C30.9124 22.8361 30.8558 22.6892 30.8558 22.5084V19.0847C30.8558 18.7457 31.0709 18.5762 31.5012 18.5762H45.8701C46.708 18.5762 47.2289 18.757 47.4327 19.1186C47.6592 19.5028 47.7724 20.1807 47.7724 21.1525C47.7724 22.4406 47.5573 24.4745 47.127 27.2542C47.0817 27.4802 46.9798 27.661 46.8213 27.7966C46.6854 27.9548 46.5042 28.0338 46.2778 28.0338H37.1401V29.2542H47.4667C47.6705 29.2542 47.829 29.3107 47.9423 29.4237C48.0781 29.5593 48.1461 29.7175 48.1461 29.8983V33.1186C48.1461 33.4802 47.9196 33.6836 47.4667 33.7288C46.742 33.7966 45.7682 33.8531 44.5453 33.8983C43.3451 33.9435 42.3034 33.966 41.4202 33.966L36.3248 34H34.8302C33.3129 34 32.3051 33.966 31.8069 33.8983C31.5805 33.8757 31.4106 33.8079 31.2974 33.6949C31.2068 33.6045 31.1389 33.4689 31.0936 33.2881C30.4821 30.5988 30.1764 28.5197 30.1764 27.0508C30.1764 26.418 30.2217 25.9209 30.3123 25.5593ZM25.8284 12.7796C25.8284 12.2824 26.0775 12.0338 26.5757 12.0338H51.577C51.7808 12.0338 51.9506 12.1129 52.0865 12.2711C52.245 12.4067 52.3243 12.5762 52.3243 12.7796V16.4067C52.3243 16.6327 52.245 16.8135 52.0865 16.9491C51.9506 17.0847 51.7808 17.1525 51.577 17.1525H26.5757C26.0775 17.1525 25.8284 16.9039 25.8284 16.4067V12.7796ZM27.4589 14.1355C27.4589 14.3841 27.5155 14.6327 27.6287 14.8813C27.742 15.1299 27.8665 15.2542 28.0024 15.2542C28.1383 15.2542 28.2628 15.1299 28.3761 14.8813C28.4893 14.6327 28.5459 14.3841 28.5459 14.1355C28.5459 13.9095 28.4893 13.7401 28.3761 13.6271C28.2855 13.4915 28.1609 13.4237 28.0024 13.4237C27.8439 13.4237 27.708 13.4915 27.5948 13.6271C27.5042 13.7401 27.4589 13.9095 27.4589 14.1355ZM29.7688 0.915197C29.7688 0.418021 30.0066 0.169434 30.4821 0.169434H35.4756C35.9738 0.169434 36.2229 0.418021 36.2229 0.915197V5.45757H47.7384C48.2367 5.45757 48.4858 5.69486 48.4858 6.16944V9.62706C48.4858 10.079 48.214 10.3276 47.6705 10.3728C46.6061 10.4406 44.7152 10.5084 41.9977 10.5762C39.3028 10.644 37.0382 10.6779 35.2038 10.6779C34.4112 10.6779 33.8111 10.6892 33.4035 10.7118C33.0638 10.7118 32.6448 10.7231 32.1466 10.7457C31.6484 10.7457 31.0936 10.7344 30.4821 10.7118C30.0066 10.6892 29.7688 10.418 29.7688 9.89825V0.915197ZM31.3653 2.50842C31.3653 2.8474 31.4333 3.19768 31.5691 3.55927C31.705 3.92085 31.8296 4.10164 31.9428 4.10164C32.056 4.10164 32.1806 3.92085 32.3165 3.55927C32.4523 3.19768 32.5203 2.8474 32.5203 2.50842C32.5203 1.89825 32.3278 1.59316 31.9428 1.59316C31.5578 1.59316 31.3653 1.89825 31.3653 2.50842ZM32.6901 20.5423C32.6901 20.7909 32.7467 21.0395 32.86 21.2881C32.9732 21.5367 33.0978 21.661 33.2336 21.661C33.3695 21.661 33.4941 21.5367 33.6073 21.2881C33.7205 21.0395 33.7771 20.7909 33.7771 20.5423C33.7771 20.3163 33.7205 20.1468 33.6073 20.0338C33.5167 19.8983 33.3922 19.8305 33.2336 19.8305C33.0751 19.8305 32.9392 19.8983 32.826 20.0338C32.7354 20.1468 32.6901 20.3163 32.6901 20.5423Z" fill="#12B76A"/>
<path d="M11.8892 16.7797C10.1681 16.7797 8.69609 16.4181 7.4732 15.6949C6.27296 14.9492 5.36712 13.9548 4.75567 12.7119C4.14423 11.4463 3.83851 10.0226 3.83851 8.44068C3.83851 6.83616 4.13291 5.40113 4.72171 4.13559C5.33315 2.87006 6.25032 1.86441 7.4732 1.11864C8.69609 0.372881 10.2134 0 12.0251 0C13.7462 0 15.4333 0.361582 17.0865 1.08475C18.7396 1.80791 20.0871 2.79096 21.1288 4.0339C22.1705 5.27684 22.7027 6.64407 22.7253 8.13559C22.7253 9.67232 22.1931 11.1073 21.1288 12.4407C20.0644 13.7514 18.683 14.8023 16.9846 15.5932C15.3087 16.3842 13.6103 16.7797 11.8892 16.7797ZM0 22.4407C0 21.9435 0.249107 21.6949 0.74732 21.6949H10.0209V18.4746C10.0209 17.9774 10.2587 17.7288 10.7342 17.7288H15.7277C16.2259 17.7288 16.475 17.9774 16.475 18.4746V21.6949H25.7486C25.9524 21.6949 26.1222 21.774 26.2581 21.9322C26.4166 22.0678 26.4959 22.2373 26.4959 22.4407V26.7119C26.4959 26.9379 26.4166 27.1186 26.2581 27.2542C26.1222 27.3898 25.9524 27.4576 25.7486 27.4576H0.74732C0.249107 27.4576 0 27.209 0 26.7119V22.4407ZM1.59655 24C1.59655 24.339 1.66449 24.6893 1.80036 25.0509C1.93624 25.4124 2.06079 25.5932 2.17402 25.5932C2.28725 25.5932 2.41181 25.4124 2.54768 25.0509C2.68356 24.6893 2.7515 24.339 2.7515 24C2.7515 23.3898 2.55901 23.0847 2.17402 23.0847C1.78904 23.0847 1.59655 23.3898 1.59655 24ZM6.89573 4.57627C6.89573 4.91526 6.96367 5.26554 7.09954 5.62712C7.23542 5.9887 7.35997 6.16949 7.4732 6.16949C7.58643 6.16949 7.71099 5.9887 7.84686 5.62712C7.98274 5.26554 8.05068 4.91526 8.05068 4.57627C8.05068 3.9661 7.85819 3.66102 7.4732 3.66102C7.08822 3.66102 6.89573 3.9661 6.89573 4.57627ZM10.2247 8.27119C10.2247 9.78531 11.0739 10.5424 12.7724 10.5424C13.6103 10.5424 14.3803 10.3277 15.0823 9.89831C15.807 9.44633 16.1693 8.91526 16.1693 8.30509C16.1693 7.67232 15.807 7.12994 15.0823 6.67797C14.3576 6.22599 13.5876 6 12.7724 6C11.8892 6 11.2438 6.21469 10.8361 6.64407C10.4285 7.05085 10.2247 7.59322 10.2247 8.27119ZM11.6174 19.8644C11.6174 20.113 11.674 20.3616 11.7873 20.6102C11.9005 20.8588 12.0251 20.9831 12.1609 20.9831C12.2968 20.9831 12.4214 20.8588 12.5346 20.6102C12.6478 20.3616 12.7044 20.113 12.7044 19.8644C12.7044 19.6384 12.6478 19.4689 12.5346 19.3559C12.444 19.2203 12.3195 19.1525 12.1609 19.1525C12.0024 19.1525 11.8665 19.2203 11.7533 19.3559C11.6627 19.4689 11.6174 19.6384 11.6174 19.8644Z" fill="#12B76A"/>
</svg>
